<mxfile host="app.diagrams.net" modified="2023-12-13T02:17:45.073Z" agent="Mozilla/5.0 (Macintosh; Intel Mac OS X 10_15_7) AppleWebKit/537.36 (KHTML, like Gecko) Chrome/120.0.0.0 Safari/537.36" etag="JjYlyRC_H2PvGd_ZgghU" version="22.1.7" type="github">
  <diagram name="ページ1" id="s0QM97gOm6jxcMUns8x2">
    <mxGraphModel dx="797" dy="437" grid="1" gridSize="10" guides="1" tooltips="1" connect="1" arrows="1" fold="1" page="1" pageScale="1" pageWidth="827" pageHeight="1169" math="0" shadow="0">
      <root>
        <mxCell id="0" />
        <mxCell id="1" parent="0" />
        <mxCell id="sexkKn3VrdQLfuhjraJk-20" value="" style="edgeStyle=none;orthogonalLoop=1;jettySize=auto;html=1;rounded=0;" edge="1" parent="1">
          <mxGeometry width="100" relative="1" as="geometry">
            <mxPoint x="200" y="400" as="sourcePoint" />
            <mxPoint x="560" y="400" as="targetPoint" />
            <Array as="points" />
          </mxGeometry>
        </mxCell>
        <mxCell id="sexkKn3VrdQLfuhjraJk-21" value="" style="edgeStyle=none;orthogonalLoop=1;jettySize=auto;html=1;rounded=0;" edge="1" parent="1">
          <mxGeometry width="100" relative="1" as="geometry">
            <mxPoint x="200" y="400" as="sourcePoint" />
            <mxPoint x="200" y="280" as="targetPoint" />
            <Array as="points" />
          </mxGeometry>
        </mxCell>
        <mxCell id="sexkKn3VrdQLfuhjraJk-22" value="" style="ellipse;whiteSpace=wrap;html=1;aspect=fixed;" vertex="1" parent="1">
          <mxGeometry x="236" y="357" width="10" height="10" as="geometry" />
        </mxCell>
        <mxCell id="sexkKn3VrdQLfuhjraJk-23" value="" style="ellipse;whiteSpace=wrap;html=1;aspect=fixed;" vertex="1" parent="1">
          <mxGeometry x="275" y="314" width="10" height="10" as="geometry" />
        </mxCell>
        <mxCell id="sexkKn3VrdQLfuhjraJk-24" value="" style="ellipse;whiteSpace=wrap;html=1;aspect=fixed;" vertex="1" parent="1">
          <mxGeometry x="356" y="353" width="10" height="10" as="geometry" />
        </mxCell>
        <mxCell id="sexkKn3VrdQLfuhjraJk-25" value="" style="ellipse;whiteSpace=wrap;html=1;aspect=fixed;" vertex="1" parent="1">
          <mxGeometry x="395" y="316" width="10" height="10" as="geometry" />
        </mxCell>
        <mxCell id="sexkKn3VrdQLfuhjraJk-26" value="" style="ellipse;whiteSpace=wrap;html=1;aspect=fixed;" vertex="1" parent="1">
          <mxGeometry x="436" y="355" width="10" height="10" as="geometry" />
        </mxCell>
        <mxCell id="sexkKn3VrdQLfuhjraJk-27" value="" style="ellipse;whiteSpace=wrap;html=1;aspect=fixed;" vertex="1" parent="1">
          <mxGeometry x="475" y="315" width="10" height="10" as="geometry" />
        </mxCell>
        <mxCell id="sexkKn3VrdQLfuhjraJk-28" value="" style="ellipse;whiteSpace=wrap;html=1;aspect=fixed;" vertex="1" parent="1">
          <mxGeometry x="516" y="355" width="10" height="10" as="geometry" />
        </mxCell>
        <mxCell id="sexkKn3VrdQLfuhjraJk-29" value="" style="edgeStyle=none;orthogonalLoop=1;jettySize=auto;html=1;rounded=0;" edge="1" parent="1">
          <mxGeometry width="100" relative="1" as="geometry">
            <mxPoint x="200" y="600" as="sourcePoint" />
            <mxPoint x="560" y="600" as="targetPoint" />
            <Array as="points" />
          </mxGeometry>
        </mxCell>
        <mxCell id="sexkKn3VrdQLfuhjraJk-30" value="" style="edgeStyle=none;orthogonalLoop=1;jettySize=auto;html=1;rounded=0;" edge="1" parent="1">
          <mxGeometry width="100" relative="1" as="geometry">
            <mxPoint x="200" y="600" as="sourcePoint" />
            <mxPoint x="200" y="480" as="targetPoint" />
            <Array as="points" />
          </mxGeometry>
        </mxCell>
        <mxCell id="sexkKn3VrdQLfuhjraJk-31" value="" style="ellipse;whiteSpace=wrap;html=1;aspect=fixed;" vertex="1" parent="1">
          <mxGeometry x="236" y="557" width="10" height="10" as="geometry" />
        </mxCell>
        <mxCell id="sexkKn3VrdQLfuhjraJk-32" value="" style="ellipse;whiteSpace=wrap;html=1;aspect=fixed;" vertex="1" parent="1">
          <mxGeometry x="275" y="514" width="10" height="10" as="geometry" />
        </mxCell>
        <mxCell id="sexkKn3VrdQLfuhjraJk-33" value="" style="ellipse;whiteSpace=wrap;html=1;aspect=fixed;" vertex="1" parent="1">
          <mxGeometry x="316" y="555" width="10" height="10" as="geometry" />
        </mxCell>
        <mxCell id="sexkKn3VrdQLfuhjraJk-34" value="" style="ellipse;whiteSpace=wrap;html=1;aspect=fixed;" vertex="1" parent="1">
          <mxGeometry x="355" y="516" width="10" height="10" as="geometry" />
        </mxCell>
        <mxCell id="sexkKn3VrdQLfuhjraJk-35" value="" style="ellipse;whiteSpace=wrap;html=1;aspect=fixed;" vertex="1" parent="1">
          <mxGeometry x="395" y="555" width="10" height="10" as="geometry" />
        </mxCell>
        <mxCell id="sexkKn3VrdQLfuhjraJk-36" value="" style="ellipse;whiteSpace=wrap;html=1;aspect=fixed;" vertex="1" parent="1">
          <mxGeometry x="436" y="515" width="10" height="10" as="geometry" />
        </mxCell>
        <mxCell id="sexkKn3VrdQLfuhjraJk-37" value="" style="ellipse;whiteSpace=wrap;html=1;aspect=fixed;" vertex="1" parent="1">
          <mxGeometry x="476" y="555" width="10" height="10" as="geometry" />
        </mxCell>
        <mxCell id="sexkKn3VrdQLfuhjraJk-38" value="" style="endArrow=none;html=1;rounded=0;exitX=1;exitY=0;exitDx=0;exitDy=0;entryX=0;entryY=1;entryDx=0;entryDy=0;" edge="1" parent="1" source="sexkKn3VrdQLfuhjraJk-22" target="sexkKn3VrdQLfuhjraJk-23">
          <mxGeometry width="50" height="50" relative="1" as="geometry">
            <mxPoint x="380" y="430" as="sourcePoint" />
            <mxPoint x="430" y="380" as="targetPoint" />
          </mxGeometry>
        </mxCell>
        <mxCell id="sexkKn3VrdQLfuhjraJk-39" value="" style="endArrow=none;html=1;rounded=0;exitX=0;exitY=0.5;exitDx=0;exitDy=0;entryX=1;entryY=1;entryDx=0;entryDy=0;" edge="1" parent="1" source="sexkKn3VrdQLfuhjraJk-24" target="sexkKn3VrdQLfuhjraJk-23">
          <mxGeometry width="50" height="50" relative="1" as="geometry">
            <mxPoint x="255" y="368" as="sourcePoint" />
            <mxPoint x="286" y="333" as="targetPoint" />
          </mxGeometry>
        </mxCell>
        <mxCell id="sexkKn3VrdQLfuhjraJk-40" value="" style="endArrow=none;html=1;rounded=0;exitX=0;exitY=1;exitDx=0;exitDy=0;entryX=1;entryY=0;entryDx=0;entryDy=0;" edge="1" parent="1" source="sexkKn3VrdQLfuhjraJk-25" target="sexkKn3VrdQLfuhjraJk-24">
          <mxGeometry width="50" height="50" relative="1" as="geometry">
            <mxPoint x="366" y="368" as="sourcePoint" />
            <mxPoint x="294" y="333" as="targetPoint" />
          </mxGeometry>
        </mxCell>
        <mxCell id="sexkKn3VrdQLfuhjraJk-41" value="" style="endArrow=none;html=1;rounded=0;exitX=1;exitY=1;exitDx=0;exitDy=0;entryX=0;entryY=0;entryDx=0;entryDy=0;" edge="1" parent="1" source="sexkKn3VrdQLfuhjraJk-25" target="sexkKn3VrdQLfuhjraJk-26">
          <mxGeometry width="50" height="50" relative="1" as="geometry">
            <mxPoint x="406" y="335" as="sourcePoint" />
            <mxPoint x="375" y="364" as="targetPoint" />
          </mxGeometry>
        </mxCell>
        <mxCell id="sexkKn3VrdQLfuhjraJk-42" value="" style="endArrow=none;html=1;rounded=0;exitX=1;exitY=0;exitDx=0;exitDy=0;entryX=0;entryY=1;entryDx=0;entryDy=0;" edge="1" parent="1" source="sexkKn3VrdQLfuhjraJk-26" target="sexkKn3VrdQLfuhjraJk-27">
          <mxGeometry width="50" height="50" relative="1" as="geometry">
            <mxPoint x="416" y="345" as="sourcePoint" />
            <mxPoint x="385" y="374" as="targetPoint" />
          </mxGeometry>
        </mxCell>
        <mxCell id="sexkKn3VrdQLfuhjraJk-43" value="" style="endArrow=none;html=1;rounded=0;exitX=1;exitY=1;exitDx=0;exitDy=0;entryX=0;entryY=0;entryDx=0;entryDy=0;" edge="1" parent="1" source="sexkKn3VrdQLfuhjraJk-27" target="sexkKn3VrdQLfuhjraJk-28">
          <mxGeometry width="50" height="50" relative="1" as="geometry">
            <mxPoint x="426" y="355" as="sourcePoint" />
            <mxPoint x="395" y="384" as="targetPoint" />
          </mxGeometry>
        </mxCell>
        <mxCell id="sexkKn3VrdQLfuhjraJk-44" value="" style="endArrow=none;html=1;rounded=0;entryX=0;entryY=1;entryDx=0;entryDy=0;exitX=1;exitY=0;exitDx=0;exitDy=0;" edge="1" parent="1" source="sexkKn3VrdQLfuhjraJk-31" target="sexkKn3VrdQLfuhjraJk-32">
          <mxGeometry width="50" height="50" relative="1" as="geometry">
            <mxPoint x="244" y="560" as="sourcePoint" />
            <mxPoint x="260" y="540" as="targetPoint" />
          </mxGeometry>
        </mxCell>
        <mxCell id="sexkKn3VrdQLfuhjraJk-45" value="" style="endArrow=none;html=1;rounded=0;entryX=1;entryY=1;entryDx=0;entryDy=0;exitX=0;exitY=0;exitDx=0;exitDy=0;" edge="1" parent="1" source="sexkKn3VrdQLfuhjraJk-33" target="sexkKn3VrdQLfuhjraJk-32">
          <mxGeometry width="50" height="50" relative="1" as="geometry">
            <mxPoint x="255" y="568" as="sourcePoint" />
            <mxPoint x="286" y="533" as="targetPoint" />
          </mxGeometry>
        </mxCell>
        <mxCell id="sexkKn3VrdQLfuhjraJk-46" value="" style="endArrow=none;html=1;rounded=0;entryX=1;entryY=0;entryDx=0;entryDy=0;exitX=0;exitY=1;exitDx=0;exitDy=0;" edge="1" parent="1" source="sexkKn3VrdQLfuhjraJk-34" target="sexkKn3VrdQLfuhjraJk-33">
          <mxGeometry width="50" height="50" relative="1" as="geometry">
            <mxPoint x="327" y="566" as="sourcePoint" />
            <mxPoint x="294" y="533" as="targetPoint" />
          </mxGeometry>
        </mxCell>
        <mxCell id="sexkKn3VrdQLfuhjraJk-47" value="" style="endArrow=none;html=1;rounded=0;entryX=0;entryY=0;entryDx=0;entryDy=0;exitX=1;exitY=1;exitDx=0;exitDy=0;" edge="1" parent="1" source="sexkKn3VrdQLfuhjraJk-34" target="sexkKn3VrdQLfuhjraJk-35">
          <mxGeometry width="50" height="50" relative="1" as="geometry">
            <mxPoint x="366" y="535" as="sourcePoint" />
            <mxPoint x="335" y="566" as="targetPoint" />
          </mxGeometry>
        </mxCell>
        <mxCell id="sexkKn3VrdQLfuhjraJk-48" value="" style="endArrow=none;html=1;rounded=0;entryX=0;entryY=1;entryDx=0;entryDy=0;exitX=1;exitY=0;exitDx=0;exitDy=0;" edge="1" parent="1" source="sexkKn3VrdQLfuhjraJk-35" target="sexkKn3VrdQLfuhjraJk-36">
          <mxGeometry width="50" height="50" relative="1" as="geometry">
            <mxPoint x="374" y="535" as="sourcePoint" />
            <mxPoint x="406" y="566" as="targetPoint" />
          </mxGeometry>
        </mxCell>
        <mxCell id="sexkKn3VrdQLfuhjraJk-49" value="" style="endArrow=none;html=1;rounded=0;entryX=1;entryY=1;entryDx=0;entryDy=0;exitX=0;exitY=0;exitDx=0;exitDy=0;" edge="1" parent="1" source="sexkKn3VrdQLfuhjraJk-37" target="sexkKn3VrdQLfuhjraJk-36">
          <mxGeometry width="50" height="50" relative="1" as="geometry">
            <mxPoint x="414" y="566" as="sourcePoint" />
            <mxPoint x="447" y="534" as="targetPoint" />
          </mxGeometry>
        </mxCell>
      </root>
    </mxGraphModel>
  </diagram>
</mxfile>
